<svg width="28" height="28" viewBox="0 0 28 28" fill="none" xmlns="http://www.w3.org/2000/svg">
<g clip-path="url(#clip0_197_936)">
<path d="M18.3125 10.25V5.5625C18.3125 4.81658 17.9767 4.10121 17.3789 3.57376C16.7811 3.04632 15.9704 2.75 15.125 2.75H6.625C5.77962 2.75 4.96887 3.04632 4.3711 3.57376C3.77333 4.10121 3.4375 4.81658 3.4375 5.5625V22.4375C3.4375 23.1834 3.77333 23.8988 4.3711 24.4262C4.96887 24.9537 5.77962 25.25 6.625 25.25H15.125C15.9704 25.25 16.7811 24.9537 17.3789 24.4262C17.9767 23.8988 18.3125 23.1834 18.3125 22.4375V17.75M13 10.25L8.75 14M8.75 14L13 17.75M8.75 14H26.8125" stroke="#F3F3F3" stroke-width="2.5" stroke-linecap="round" stroke-linejoin="round"/>
</g>
<defs>
<clipPath id="clip0_197_936">
<rect width="28" height="28" fill="white"/>
</clipPath>
</defs>
</svg>
