<svg width="28" height="28" viewBox="0 0 28 28" fill="none" xmlns="http://www.w3.org/2000/svg">
<path d="M20.9791 21.8458C20.1639 20.7665 19.1092 19.8912 17.8981 19.2889C16.6871 18.6866 15.3527 18.3738 14.0001 18.375C12.6475 18.3738 11.3131 18.6866 10.1021 19.2889C8.89097 19.8912 7.83629 20.7665 7.0211 21.8458M20.9791 21.8458C22.5698 20.4309 23.6917 18.5658 24.1981 16.4979C24.7046 14.4301 24.5704 12.2571 23.8135 10.2672C23.0565 8.27734 21.7126 6.56456 19.9599 5.35604C18.2072 4.14751 16.1285 3.50034 13.9995 3.50034C11.8705 3.50034 9.79185 4.14751 8.03913 5.35604C6.28642 6.56456 4.94248 8.27734 4.18555 10.2672C3.42863 12.2571 3.29447 14.4301 3.80089 16.4979C4.3073 18.5658 5.43035 20.4309 7.0211 21.8458M20.9791 21.8458C19.0588 23.5587 16.5733 24.5037 14.0001 24.5C11.4265 24.5039 8.94171 23.559 7.0211 21.8458M17.5001 11.375C17.5001 12.3033 17.1313 13.1935 16.475 13.8499C15.8186 14.5062 14.9284 14.875 14.0001 14.875C13.0718 14.875 12.1816 14.5062 11.5252 13.8499C10.8688 13.1935 10.5001 12.3033 10.5001 11.375C10.5001 10.4467 10.8688 9.5565 11.5252 8.90012C12.1816 8.24374 13.0718 7.87499 14.0001 7.87499C14.9284 7.87499 15.8186 8.24374 16.475 8.90012C17.1313 9.5565 17.5001 10.4467 17.5001 11.375Z" stroke="#F3F3F3" stroke-width="2.5" stroke-linecap="round" stroke-linejoin="round"/>
</svg>
